static_00
version=1
nRows=9
nColumns=46
inDegrees=yes
endheader
time	ground_force3_vx	ground_force3_vy	ground_force3_vz	ground_force3_px	ground_force3_py	ground_force3_pz	ground_torque3_x	ground_torque3_y	ground_torque3_z	ground_force5_vx	ground_force5_vy	ground_force5_vz	ground_force5_px	ground_force5_py	ground_force5_pz	ground_torque5_x	ground_torque5_y	ground_torque5_z	ground_force4_vx	ground_force4_vy	ground_force4_vz	ground_force4_px	ground_force4_py	ground_force4_pz	ground_torque4_x	ground_torque4_y	ground_torque4_z	ground_force1_vx	ground_force1_vy	ground_force1_vz	ground_force1_px	ground_force1_py	ground_force1_pz	ground_torque1_x	ground_torque1_y	ground_torque1_z	ground_force2_vx	ground_force2_vy	ground_force2_vz	ground_force2_px	ground_force2_py	ground_force2_pz	ground_torque2_x	ground_torque2_y	ground_torque2_z
0.592500	0.394080	478.863007	-57.854801	0.194648	0.000000	-0.393966	0.000014	1.186318	0.000004	-0.000000	-0.000000	0.000000	0.200000	0.000000	-1.500000	0.000000	0.000000	0.000000	-1.512022	443.349670	56.317986	0.207867	0.000000	-0.804496	0.000013	-0.135913	0.000004	-1.848425	8.430531	-1.112460	0.201204	0.000000	0.958557	-0.000001	-0.069332	0.000000	-3.412606	5.374712	-0.579272	0.124845	0.000000	0.187710	-0.000000	0.145416	0.000000	
0.593000	0.635389	479.494995	-57.774239	0.194676	0.000000	-0.393699	0.000017	1.172249	0.000007	-0.000000	-0.000000	0.000000	0.200000	0.000000	-1.500000	0.000000	0.000000	0.000000	-1.430728	442.710419	56.077694	0.207876	0.000000	-0.803802	0.000012	-0.063261	0.000008	-2.010753	9.059599	-1.273418	0.208736	0.000000	0.954996	-0.000001	-0.091061	0.000000	-2.850775	6.173624	-0.981204	0.133063	0.000000	0.164819	-0.000000	0.056789	0.000000	
0.593500	0.313644	479.337372	-57.854801	0.194678	0.000000	-0.393541	0.000007	1.179662	0.000003	-0.000000	-0.000000	0.000000	0.200000	0.000000	-1.500000	0.000000	0.000000	0.000000	-1.593315	442.712769	56.077694	0.207697	0.000000	-0.803798	0.000025	-0.101408	0.000004	-2.252956	8.899850	-1.032192	0.193158	0.000000	0.980793	-0.000000	-0.117820	0.000000	-3.092043	6.172953	-0.739638	0.140564	0.000000	0.197900	-0.000000	-0.012280	0.000000	
0.594000	-0.008102	479.179749	-57.935364	0.194681	0.000000	-0.393384	-0.000000	1.186975	0.000006	-0.000000	-0.000000	0.000000	0.200000	0.000000	-1.500000	0.000000	0.000000	0.000000	-1.755902	442.715118	56.077694	0.207518	0.000000	-0.803794	0.000017	-0.139557	0.000006	-2.495159	8.740101	-0.790966	0.177012	0.000000	1.007533	-0.000000	-0.152364	0.000000	-3.333312	6.172282	-0.498072	0.148067	0.000000	0.230987	0.000000	-0.100959	0.000000	
0.594500	-0.168975	478.548096	-57.935196	0.194588	0.000000	-0.393775	0.000010	1.216064	0.000005	-0.000000	-0.000000	0.000000	0.200000	0.000000	-1.500000	0.000000	0.000000	0.000000	-1.756675	443.034027	55.916138	0.207673	0.000000	-0.803742	0.000002	-0.198919	0.000008	-2.252956	9.370422	-0.871658	0.191336	0.000000	0.994716	-0.000000	-0.130414	0.000000	-3.332889	6.329378	-0.417380	0.153355	0.000000	0.218511	-0.000000	-0.030559	0.000000	
0.595000	-0.329848	477.916412	-57.935028	0.194496	0.000000	-0.394166	0.000018	1.245264	0.000001	-0.000000	-0.000000	0.000000	0.200000	0.000000	-1.500000	0.000000	0.000000	0.000000	-1.757447	443.352936	55.754585	0.207828	0.000000	-0.803690	0.000025	-0.258217	0.000003	-2.010753	10.000744	-0.952350	0.203854	0.000000	0.983514	-0.000001	-0.117330	-0.000000	-3.332466	6.486473	-0.336688	0.158387	0.000000	0.206639	-0.000000	0.036877	-0.000000	
0.595500	-0.249411	478.389465	-57.370739	0.194547	0.000000	-0.394210	0.000010	1.230857	0.000004	-0.000000	-0.000000	0.000000	0.200000	0.000000	-1.500000	0.000000	0.000000	0.000000	-1.674609	444.472382	56.076675	0.207783	0.000000	-0.804122	0.000015	-0.168403	0.000006	-2.172221	9.057240	-0.710699	0.203363	0.000000	0.991586	-0.000000	-0.123838	0.000000	-3.573311	5.695191	-0.174796	0.147686	0.000000	0.197907	-0.000000	0.077522	0.000000	
0.596000	-0.168975	478.862518	-56.806450	0.194598	0.000000	-0.394253	0.000013	1.216380	0.000005	-0.000000	-0.000000	0.000000	0.200000	0.000000	-1.500000	0.000000	0.000000	0.000000	-1.591771	445.591827	56.398762	0.207738	0.000000	-0.804551	0.000019	-0.078646	0.000001	-2.333690	8.113737	-0.469049	0.202758	0.000000	1.001534	-0.000001	-0.137150	0.000000	-3.814156	4.903910	-0.012904	0.133532	0.000000	0.186356	-0.000000	0.136542	0.000000	
0.596500	0.313644	479.180725	-57.209782	0.194942	0.000000	-0.394102	-0.000001	1.210880	0.000000	-0.000000	-0.000000	0.000000	0.200000	0.000000	-1.500000	0.000000	0.000000	0.000000	-1.751269	443.832092	56.640583	0.207710	0.000000	-0.804348	0.000030	0.012187	0.000005	-2.252097	8.112223	-0.791391	0.189716	0.000000	0.999431	-0.000000	-0.067165	-0.000000	-3.653451	6.019392	-0.416871	0.136180	0.000000	0.214272	0.000000	0.055133	0.000000	
